<svg width="13" height="10" viewBox="0 0 13 10" fill="none" xmlns="http://www.w3.org/2000/svg">
<path id="Vector" d="M4.11782 0.837891L4.01809 1.26046H4.81918L4.71942 0.837891H4.11782ZM4.20543 1.64077V1.93657H4.63184V1.64077H4.20543ZM3.47781 2.31688L3.2935 4.30296H3.69966L3.84179 2.61268H6.93434L6.88696 2.31688H3.47781ZM10.649 2.80284V4.37906C10.7913 4.38886 10.9335 4.4006 11.0754 4.41426V2.80284H10.649ZM4.23741 2.99299L4.12723 4.30296H4.27647C4.51344 4.30296 4.73946 4.39339 4.96347 4.52787V2.99299H4.23741ZM5.3899 2.99299V4.77328L7.23768 4.95669V4.50674L6.99522 2.99299H5.3899ZM2.52347 4.68327C2.33396 4.68327 1.9717 4.82608 1.63803 5.06415C1.37963 5.24852 1.13454 5.4844 0.957031 5.72264L1.35532 5.81144C1.82959 5.27962 2.5606 4.93681 3.37627 4.93681C4.57482 4.93681 5.59077 5.67681 5.87755 6.66934H6.36103C6.1447 6.27342 5.81435 5.81973 5.45318 5.44624C5.23215 5.21765 5.00158 5.01966 4.79117 4.8842C4.58079 4.74873 4.3913 4.68327 4.2765 4.68327H2.52347ZM7.66409 4.68452V7.0074H8.42571C8.64093 6.37027 9.04628 5.93469 9.58946 5.71449C9.88107 5.59625 10.2051 5.53901 10.5545 5.53325C10.8245 5.52877 11.1099 5.55541 11.407 5.60804V4.83706C11.1347 4.79943 10.8128 4.76992 10.4681 4.74826C9.51566 4.68845 8.42706 4.68488 7.66409 4.68452ZM11.8334 4.913V5.31712H12.1651V5.03379C12.0709 4.97679 11.9304 4.93647 11.8334 4.913ZM5.7722 5.1939C5.77348 5.19523 5.77481 5.1965 5.77609 5.19783C6.24978 5.68765 6.67257 6.28785 6.89153 6.79062L7.00434 7.04966H5.94945C5.9553 7.11241 5.95845 7.17579 5.95845 7.23981C5.95845 7.39147 5.94156 7.53979 5.90972 7.68351H7.23768V5.33941L5.7722 5.1939ZM3.3763 5.31712C2.1899 5.31712 1.22055 6.1817 1.22055 7.23981C1.22055 8.29793 2.1899 9.1625 3.3763 9.1625C4.56267 9.1625 5.53204 8.29793 5.53204 7.23981C5.53204 6.1817 4.56267 5.31712 3.3763 5.31712ZM11.8334 5.69744V5.99323H12.1651V5.69744H11.8334ZM3.3763 5.78195C4.28029 5.78195 5.01087 6.43355 5.01087 7.23981C5.01087 8.04607 4.28029 8.69768 3.3763 8.69768C2.47228 8.69768 1.74172 8.04607 1.74172 7.23981C1.74172 6.43355 2.47228 5.78195 3.3763 5.78195ZM10.6633 5.91442C10.3578 5.91789 10.0149 5.96226 9.76592 6.0607C9.36701 6.22241 9.06296 6.51591 8.87304 7.0074H9.12344C9.45357 6.5274 10.0476 6.20452 10.72 6.20452C10.9554 6.20456 11.1886 6.24472 11.407 6.32284V5.99645C11.1421 5.9454 10.8934 5.91778 10.6633 5.91442ZM3.3763 6.16226C2.69906 6.16226 2.16813 6.63581 2.16813 7.23981C2.16813 7.84381 2.69906 8.31736 3.3763 8.31736C4.05351 8.31736 4.58446 7.84381 4.58446 7.23981C4.58446 6.63581 4.05351 6.16226 3.3763 6.16226ZM11.8334 6.37355V6.5356C11.9563 6.61741 12.0677 6.71217 12.1651 6.81781V6.37355H11.8334ZM10.72 6.58483C9.92661 6.58483 9.27498 7.16603 9.27498 7.87367C9.27498 8.5813 9.92661 9.1625 10.72 9.1625C11.5134 9.1625 12.1651 8.5813 12.1651 7.87367C12.1651 7.16603 11.5134 6.58483 10.72 6.58483ZM10.72 7.04966C11.2297 7.04966 11.6439 7.41907 11.6439 7.87367C11.6439 8.32827 11.2297 8.69768 10.72 8.69768C10.2103 8.69768 9.79615 8.32827 9.79615 7.87367C9.79615 7.41907 10.2103 7.04966 10.72 7.04966ZM7.66409 7.38771V7.7126L8.8488 7.88869C8.84873 7.88368 8.84857 7.87869 8.84857 7.87367C8.84857 7.70489 8.87744 7.54174 8.93063 7.38771H7.66409ZM10.72 7.42997C10.4335 7.42997 10.2226 7.61812 10.2226 7.87367C10.2226 8.12921 10.4335 8.31736 10.72 8.31736C11.0065 8.31736 11.2175 8.12921 11.2175 7.87367C11.2175 7.61812 11.0065 7.42997 10.72 7.42997Z" fill="#EDEDED"/>
</svg>
