<svg width="12" height="13" viewBox="0 0 12 13" fill="none" xmlns="http://www.w3.org/2000/svg">
<path id="Vector" d="M0.558594 12.7632V9.0599C0.558594 8.85156 0.614189 8.65364 0.725381 8.46613C0.836572 8.27862 0.991212 8.12757 1.1893 8.01299L1.96016 7.55984C2.04192 8.43488 2.1704 9.1797 2.3456 9.79431C2.52079 10.4089 2.79527 11.0912 3.16902 11.8413L0.558594 12.7632ZM4.2202 11.5131C3.81141 10.8256 3.50773 10.0964 3.30918 9.32554C3.11062 8.55467 3.01134 7.75777 3.01134 6.93482C3.01134 5.63268 3.30053 4.40597 3.87891 3.25467C4.4573 2.10338 5.21928 1.23105 6.16488 0.637695C7.11094 1.23147 7.87316 2.104 8.45154 3.2553C9.02992 4.40659 9.31888 5.6331 9.31841 6.93482C9.31841 7.74735 9.21913 8.53655 9.02058 9.30241C8.82202 10.0683 8.51835 10.8052 8.10956 11.5131H4.2202ZM6.16488 7.13795C6.55031 7.13795 6.88038 7.01545 7.15509 6.77044C7.42979 6.52543 7.56692 6.23125 7.56645 5.8879C7.56645 5.54414 7.42909 5.24975 7.15439 5.00474C6.87968 4.75973 6.54984 4.63744 6.16488 4.63785C5.77945 4.63785 5.44938 4.76036 5.17467 5.00537C4.89996 5.25038 4.76284 5.54456 4.76331 5.8879C4.76331 6.23167 4.90066 6.52605 5.17537 6.77106C5.45008 7.01607 5.77991 7.13837 6.16488 7.13795ZM11.7712 12.7632L9.16073 11.8413C9.53449 11.0912 9.80896 10.4089 9.98416 9.79431C10.1594 9.1797 10.2878 8.43488 10.3696 7.55984L11.1405 8.01299C11.339 8.12757 11.4939 8.27862 11.6051 8.46613C11.7163 8.65364 11.7716 8.85156 11.7712 9.0599V12.7632Z" fill="#F8F8F8"/>
</svg>
