<svg width="20" height="20" viewBox="0 0 20 20" fill="none" xmlns="http://www.w3.org/2000/svg">
<g id="ph:wallet-thin">
<path id="Vector" d="M16.875 5.9375H4.375C4.12636 5.9375 3.8879 5.83873 3.71209 5.66291C3.53627 5.4871 3.4375 5.24864 3.4375 5C3.4375 4.75136 3.53627 4.5129 3.71209 4.33709C3.8879 4.16127 4.12636 4.0625 4.375 4.0625H15C15.0829 4.0625 15.1624 4.02958 15.221 3.97097C15.2796 3.91237 15.3125 3.83288 15.3125 3.75C15.3125 3.66712 15.2796 3.58763 15.221 3.52903C15.1624 3.47042 15.0829 3.4375 15 3.4375H4.375C3.9606 3.4375 3.56317 3.60212 3.27015 3.89515C2.97712 4.18817 2.8125 4.5856 2.8125 5V15C2.8125 15.4144 2.97712 15.8118 3.27015 16.1049C3.56317 16.3979 3.9606 16.5625 4.375 16.5625H16.875C17.1236 16.5625 17.3621 16.4637 17.5379 16.2879C17.7137 16.1121 17.8125 15.8736 17.8125 15.625V6.875C17.8125 6.62636 17.7137 6.3879 17.5379 6.21209C17.3621 6.03627 17.1236 5.9375 16.875 5.9375ZM17.1875 15.625C17.1875 15.7079 17.1546 15.7874 17.096 15.846C17.0374 15.9046 16.9579 15.9375 16.875 15.9375H4.375C4.12636 15.9375 3.8879 15.8387 3.71209 15.6629C3.53627 15.4871 3.4375 15.2486 3.4375 15V6.25C3.70759 6.45356 4.03679 6.5633 4.375 6.5625H16.875C16.9579 6.5625 17.0374 6.59542 17.096 6.65403C17.1546 6.71263 17.1875 6.79212 17.1875 6.875V15.625ZM14.6875 10.9375C14.6875 11.0611 14.6508 11.182 14.5822 11.2847C14.5135 11.3875 14.4159 11.4676 14.3017 11.5149C14.1875 11.5622 14.0618 11.5746 13.9406 11.5505C13.8193 11.5264 13.708 11.4669 13.6206 11.3794C13.5331 11.292 13.4736 11.1807 13.4495 11.0594C13.4254 10.9382 13.4378 10.8125 13.4851 10.6983C13.5324 10.5841 13.6125 10.4865 13.7153 10.4178C13.818 10.3492 13.9389 10.3125 14.0625 10.3125C14.2283 10.3125 14.3872 10.3783 14.5044 10.4956C14.6217 10.6128 14.6875 10.7717 14.6875 10.9375Z" fill="black"/>
</g>
</svg>
