<svg width="11" height="10" viewBox="0 0 11 10" fill="none" xmlns="http://www.w3.org/2000/svg">
<path id="Vector" fill-rule="evenodd" clip-rule="evenodd" d="M2.30398 -0.000976562C1.70121 -0.000976562 1.12314 0.238527 0.696916 0.664846C0.270697 1.09116 0.03125 1.66938 0.03125 2.27228C0.03125 2.87519 0.270697 3.4534 0.696916 3.87972C1.12314 4.30604 1.70121 4.54554 2.30398 4.54554C2.90674 4.54554 3.48482 4.30604 3.91104 3.87972C4.33726 3.4534 4.5767 2.87519 4.5767 2.27228C4.5767 1.66938 4.33726 1.09116 3.91104 0.664846C3.48482 0.238527 2.90674 -0.000976562 2.30398 -0.000976562ZM0.940341 2.27228C0.940341 1.91054 1.08401 1.56361 1.33974 1.30782C1.59547 1.05203 1.94232 0.908327 2.30398 0.908327C2.66564 0.908327 3.01248 1.05203 3.26821 1.30782C3.52395 1.56361 3.66761 1.91054 3.66761 2.27228C3.66761 2.63403 3.52395 2.98095 3.26821 3.23675C3.01248 3.49254 2.66564 3.63624 2.30398 3.63624C1.94232 3.63624 1.59547 3.49254 1.33974 3.23675C1.08401 2.98095 0.940341 2.63403 0.940341 2.27228ZM7.75852 -0.000976562C7.15576 -0.000976562 6.57768 0.238527 6.15146 0.664846C5.72524 1.09116 5.4858 1.66938 5.4858 2.27228C5.4858 2.87519 5.72524 3.4534 6.15146 3.87972C6.57768 4.30604 7.15576 4.54554 7.75852 4.54554C8.36129 4.54554 8.93936 4.30604 9.36558 3.87972C9.7918 3.4534 10.0312 2.87519 10.0312 2.27228C10.0312 1.66938 9.7918 1.09116 9.36558 0.664846C8.93936 0.238527 8.36129 -0.000976562 7.75852 -0.000976562ZM6.39489 2.27228C6.39489 1.91054 6.53855 1.56361 6.79429 1.30782C7.05002 1.05203 7.39686 0.908327 7.75852 0.908327C8.12018 0.908327 8.46703 1.05203 8.72276 1.30782C8.97849 1.56361 9.12216 1.91054 9.12216 2.27228C9.12216 2.63403 8.97849 2.98095 8.72276 3.23675C8.46703 3.49254 8.12018 3.63624 7.75852 3.63624C7.39686 3.63624 7.05002 3.49254 6.79429 3.23675C6.53855 2.98095 6.39489 2.63403 6.39489 2.27228ZM0.03125 7.72811C0.03125 7.1252 0.270697 6.54699 0.696916 6.12067C1.12314 5.69435 1.70121 5.45485 2.30398 5.45485C2.90674 5.45485 3.48482 5.69435 3.91104 6.12067C4.33726 6.54699 4.5767 7.1252 4.5767 7.72811C4.5767 8.33101 4.33726 8.90923 3.91104 9.33555C3.48482 9.76186 2.90674 10.0014 2.30398 10.0014C1.70121 10.0014 1.12314 9.76186 0.696916 9.33555C0.270697 8.90923 0.03125 8.33101 0.03125 7.72811ZM2.30398 6.36415C1.94232 6.36415 1.59547 6.50785 1.33974 6.76364C1.08401 7.01944 0.940341 7.36636 0.940341 7.72811C0.940341 8.08985 1.08401 8.43678 1.33974 8.69257C1.59547 8.94836 1.94232 9.09206 2.30398 9.09206C2.66564 9.09206 3.01248 8.94836 3.26821 8.69257C3.52395 8.43678 3.66761 8.08985 3.66761 7.72811C3.66761 7.36636 3.52395 7.01944 3.26821 6.76364C3.01248 6.50785 2.66564 6.36415 2.30398 6.36415ZM7.75852 5.45485C7.15576 5.45485 6.57768 5.69435 6.15146 6.12067C5.72524 6.54699 5.4858 7.1252 5.4858 7.72811C5.4858 8.33101 5.72524 8.90923 6.15146 9.33555C6.57768 9.76186 7.15576 10.0014 7.75852 10.0014C8.36129 10.0014 8.93936 9.76186 9.36558 9.33555C9.7918 8.90923 10.0312 8.33101 10.0312 7.72811C10.0312 7.1252 9.7918 6.54699 9.36558 6.12067C8.93936 5.69435 8.36129 5.45485 7.75852 5.45485ZM6.39489 7.72811C6.39489 7.36636 6.53855 7.01944 6.79429 6.76364C7.05002 6.50785 7.39686 6.36415 7.75852 6.36415C8.12018 6.36415 8.46703 6.50785 8.72276 6.76364C8.97849 7.01944 9.12216 7.36636 9.12216 7.72811C9.12216 8.08985 8.97849 8.43678 8.72276 8.69257C8.46703 8.94836 8.12018 9.09206 7.75852 9.09206C7.39686 9.09206 7.05002 8.94836 6.79429 8.69257C6.53855 8.43678 6.39489 8.08985 6.39489 7.72811Z" fill="#EDEDED"/>
</svg>
