<svg width="12" height="10" viewBox="0 0 12 10" fill="none" xmlns="http://www.w3.org/2000/svg">
<path id="Vector" d="M8.07668 0C7.23905 0 6.47989 0.14 5.88658 0.40375C5.29374 0.6675 4.80648 1.09708 4.80648 1.66667V3.33333C4.80648 3.38708 4.82657 3.43917 4.83591 3.48958C4.36829 3.3836 3.88745 3.3311 3.40497 3.33333C2.56733 3.33333 1.80817 3.47333 1.21487 3.73708C0.622026 4.00083 0.134766 4.43042 0.134766 5V8.33333C0.134766 8.90292 0.622026 9.3325 1.21533 9.59625C1.80817 9.86 2.56733 10 3.40497 10C4.24261 10 5.00176 9.86 5.59507 9.59625C6.18744 9.3325 6.67517 8.90292 6.67517 8.33333V8.16417C7.13218 8.27436 7.60328 8.33122 8.07668 8.33333C8.91432 8.33333 9.67348 8.19333 10.2668 7.92958C10.8592 7.66583 11.3469 7.23625 11.3469 6.66667V1.66667C11.3469 1.09708 10.8596 0.6675 10.2663 0.40375C9.67394 0.14 8.91479 0 8.07668 0ZM8.07668 0.833333C8.78819 0.833333 9.42167 0.97 9.84306 1.15875C10.2649 1.3475 10.4125 1.54625 10.4125 1.66667C10.4125 1.7875 10.2649 1.98583 9.84306 2.17458C9.42214 2.36333 8.78819 2.5 8.07668 2.5C7.36518 2.5 6.7317 2.36333 6.31031 2.17458C5.88845 1.98583 5.74083 1.78708 5.74083 1.66667C5.74083 1.54583 5.88845 1.3475 6.31031 1.15875C6.73123 0.97 7.36518 0.833333 8.07668 0.833333ZM5.74083 2.85167C5.78988 2.87583 5.83566 2.90708 5.88705 2.92958C6.47989 3.19333 7.23905 3.33333 8.07668 3.33333C8.91432 3.33333 9.67348 3.19333 10.2668 2.92958C10.3177 2.90708 10.3635 2.87583 10.4125 2.85167V3.33333C10.4125 3.45417 10.2649 3.6525 9.84306 3.84125C9.42167 4.03 8.78819 4.16667 8.07668 4.16667C7.36518 4.16667 6.7317 4.03 6.31031 3.84125C5.88845 3.6525 5.74083 3.45375 5.74083 3.33333V2.85167ZM3.40497 4.16667C4.11647 4.16667 4.74995 4.30333 5.17134 4.49208C5.5932 4.68083 5.74083 4.87958 5.74083 5C5.74083 5.12083 5.5932 5.31917 5.17134 5.50792C4.74995 5.69667 4.11647 5.83333 3.40497 5.83333C2.69346 5.83333 2.05998 5.69667 1.63859 5.50792C1.21674 5.31917 1.06911 5.12042 1.06911 5C1.06911 4.87917 1.21674 4.68083 1.63859 4.49208C2.05951 4.30333 2.69346 4.16667 3.40497 4.16667ZM10.4125 4.51833V5C10.4125 5.12083 10.2649 5.31917 9.84306 5.50792C9.42167 5.69667 8.78819 5.83333 8.07668 5.83333C7.60079 5.83563 7.12757 5.76965 6.67517 5.63792V5C6.67517 4.94625 6.65508 4.89417 6.64574 4.84375C7.08021 4.94458 7.56186 5 8.07668 5C8.91432 5 9.67348 4.86 10.2668 4.59625C10.3177 4.57375 10.3635 4.5425 10.4125 4.51833ZM1.06911 6.185C1.11816 6.20917 1.16394 6.24042 1.21533 6.26292C1.80817 6.52667 2.56733 6.66667 3.40497 6.66667C4.24261 6.66667 5.00176 6.52667 5.59507 6.26292C5.64599 6.24042 5.69177 6.20917 5.74083 6.185V6.66667C5.74083 6.7875 5.5932 6.98583 5.17134 7.17458C4.74995 7.36333 4.11647 7.5 3.40497 7.5C2.69346 7.5 2.05998 7.36333 1.63859 7.17458C1.21674 6.98583 1.06911 6.78708 1.06911 6.66667V6.185ZM10.4125 6.185V6.66667C10.4125 6.7875 10.2649 6.98583 9.84306 7.17458C9.42167 7.36333 8.78819 7.5 8.07668 7.5C7.54551 7.5 7.06572 7.43333 6.67517 7.3175V6.51042C7.10403 6.61125 7.5712 6.66667 8.07668 6.66667C8.91432 6.66667 9.67348 6.52667 10.2668 6.26292C10.3177 6.24042 10.3635 6.20917 10.4125 6.185ZM1.06911 7.85167C1.11816 7.87583 1.16394 7.90708 1.21533 7.92958C1.80817 8.19333 2.56733 8.33333 3.40497 8.33333C4.24261 8.33333 5.00176 8.19333 5.59507 7.92958C5.64599 7.90708 5.69177 7.87583 5.74083 7.85167V8.33333C5.74083 8.45417 5.5932 8.6525 5.17134 8.84125C4.74995 9.03 4.11647 9.16667 3.40497 9.16667C2.69346 9.16667 2.05998 9.03 1.63859 8.84125C1.21674 8.6525 1.06911 8.45375 1.06911 8.33333V7.85167Z" fill="#EDEDED"/>
</svg>
